<?xml version="1.0" encoding="UTF-8" standalone="no"?>
<svg
   fill="#000000"
   version="1.1"
   id="Capa_1"
   width="34.871002"
   height="43.916"
   viewBox="0 0 34.871002 43.916"
   xml:space="preserve"
   xmlns="http://www.w3.org/2000/svg"
   xmlns:svg="http://www.w3.org/2000/svg"><defs
   id="defs1" />
<g
   id="g1"
   style="fill:#e97e90;fill-opacity:1"
   transform="translate(-4.5219999)">
	<path
   d="M 34.395,0 H 9.522 c -2.762,0 -5,2.239 -5,5 v 33.916 c 0,2.761 2.238,5 5,5 h 24.871 c 2.762,0 5,-2.239 5,-5 V 5 C 39.395,2.239 37.154,0 34.395,0 Z M 9.208,16.855 c 0,-1.172 0.951,-2.121 2.121,-2.121 h 0.742 c -0.791,-0.874 -1.277,-2.03 -1.277,-3.304 0,-2.723 2.209,-4.931 4.932,-4.931 2.725,0 4.932,2.207 4.932,4.932 0,1.272 -0.486,2.429 -1.279,3.303 h 0.709 c 1.172,0 2.121,0.949 2.121,2.121 v 3.578 c 0,1.122 -0.875,2.03 -1.975,2.106 h -9.051 c -1.1,-0.076 -1.975,-0.984 -1.975,-2.106 z m 23.5,20.561 h -21.5 c -1.104,0 -2,-0.896 -2,-2 0,-1.104 0.896,-2 2,-2 h 21.5 c 1.104,0 2,0.896 2,2 0,1.104 -0.896,2 -2,2 z m 0,-7.5 h -21.5 c -1.104,0 -2,-0.896 -2,-2 0,-1.104 0.896,-2 2,-2 h 21.5 c 1.104,0 2,0.896 2,2 0,1.104 -0.896,2 -2,2 z m 0,-7.5 h -6.5 c -1.104,0 -2,-0.896 -2,-2 0,-1.104 0.896,-2 2,-2 h 6.5 c 1.104,0 2,0.896 2,2 0,1.104 -0.896,2 -2,2 z"
   id="path1"
   style="fill:#e97e90;fill-opacity:1" />
</g>
</svg>
