<?xml version="1.0" encoding="UTF-8" standalone="no"?>
<svg
   viewBox="0 0 24 23.40798"
   width="24"
   height="23.40798"
   version="1.1"
   id="svg1"
   xmlns="http://www.w3.org/2000/svg"
   xmlns:svg="http://www.w3.org/2000/svg">
  <defs
     id="defs1" />
  <path
     style="clip-rule:evenodd;fill:#e97e90;fill-opacity:1;fill-rule:evenodd"
     d="M 11.999,0 C 5.373,0 0,5.373 0,12.001 c 0,5.301 3.438,9.799 8.207,11.386 0.6,0.11 0.819,-0.26 0.819,-0.578 0,-0.285 -0.01,-1.04 -0.016,-2.041 C 5.672,21.493 4.968,19.159 4.968,19.159 4.422,17.773 3.636,17.404 3.636,17.404 c -1.09,-0.745 0.082,-0.729 0.082,-0.729 1.204,0.085 1.838,1.237 1.838,1.237 1.07,1.834 2.809,1.304 3.492,0.997 C 9.157,18.134 9.467,17.605 9.81,17.305 7.145,17.002 4.344,15.973 4.344,11.374 4.344,10.064 4.812,8.993 5.579,8.154 5.456,7.85 5.044,6.63 5.697,4.978 c 0,0 1.008,-0.323 3.3,1.23 0.957,-0.266 1.984,-0.399 3.004,-0.404 1.019,0.005 2.046,0.138 3.004,0.404 2.291,-1.553 3.297,-1.23 3.297,-1.23 0.655,1.652 0.243,2.872 0.119,3.176 0.769,0.839 1.233,1.91 1.233,3.22 0,4.61 -2.806,5.624 -5.479,5.921 0.431,0.37 0.815,1.103 0.815,2.222 0,1.604 -0.015,2.898 -0.015,3.292 0,0.321 0.216,0.694 0.825,0.577 C 20.565,21.795 24,17.301 24,12.001 24,5.373 18.627,0 11.999,0 Z"
     id="path1" />
</svg>
