<?xml version="1.0" encoding="UTF-8" standalone="no"?>
<svg
   viewBox="0 0 36 36"
   width="36"
   height="36"
   version="1.1"
   id="svg2"
   sodipodi:docname="linkedin.svg"
   inkscape:version="1.4.2 (ebf0e940d0, 2025-05-08)"
   xmlns:inkscape="http://www.inkscape.org/namespaces/inkscape"
   xmlns:sodipodi="http://sodipodi.sourceforge.net/DTD/sodipodi-0.dtd"
   xmlns="http://www.w3.org/2000/svg"
   xmlns:svg="http://www.w3.org/2000/svg">
  <defs
     id="defs2" />
  <sodipodi:namedview
     id="namedview2"
     pagecolor="#ffffff"
     bordercolor="#000000"
     borderopacity="0.25"
     inkscape:showpageshadow="2"
     inkscape:pageopacity="0.0"
     inkscape:pagecheckerboard="0"
     inkscape:deskcolor="#d1d1d1"
     inkscape:zoom="17.416667"
     inkscape:cx="23.971291"
     inkscape:cy="24.057416"
     inkscape:window-width="1728"
     inkscape:window-height="1086"
     inkscape:window-x="0"
     inkscape:window-y="0"
     inkscape:window-maximized="1"
     inkscape:current-layer="svg2">
    <inkscape:page
       x="0"
       y="0"
       width="36"
       height="36"
       id="page2"
       margin="0"
       bleed="0" />
  </sodipodi:namedview>
  <path
     id="path1"
     style="fill:#e97e90;fill-opacity:1"
     d="M 5,0 C 2.239,0 0,2.238 0,5 v 26 c 0,2.762 2.239,5 5,5 h 26 c 2.762,0 5,-2.238 5,-5 V 5 C 36,2.238 33.762,0 31,0 Z M 8.513672,6 C 10.034672,6 10.972,7.079047 11,8.498047 11,9.886047 10.034375,11 8.484375,11 H 8.457035 C 6.965031,11 6,9.887047 6,8.498047 6,7.079047 6.994672,6 8.513672,6 Z M 6,13 h 5 V 30 H 6 Z m 8,0 h 5 v 2.615234 C 19.721,14.499234 20.850281,13 23.738281,13 c 3.578,0 6.259766,2.249437 6.259766,7.273438 L 30,30 h -5 v -9.099609 c 0,-2.198 -1.224406,-3.697266 -3.191406,-3.697266 -1.501,0 -2.313032,1.012234 -2.707032,1.990234 C 18.957563,19.543359 19,20.511 19,21 v 9 h -5 z" />
</svg>
